<?xml version="1.0" encoding="utf-8"?>
<!-- Generator: Adobe Illustrator 19.1.0, SVG Export Plug-In . SVG Version: 6.00 Build 0)  -->
<svg version="1.1" xmlns="http://www.w3.org/2000/svg" xmlns:xlink="http://www.w3.org/1999/xlink" x="0px" y="0px"
	 viewBox="0 0 38.8 38.8" style="enable-background:new 0 0 38.8 38.8;" xml:space="preserve">
<style type="text/css">
	.st0{fill:#028CBA;}
	.st1{clip-path:url(#SVGID_2_);fill:#22366B;}
	.st2{fill:#FFFFFF;}
</style>
<g id="Light_Blue_Circle_copy">
	<path class="st0" d="M0,19.4C0,8.7,8.7,0,19.4,0s19.4,8.7,19.4,19.4s-8.7,19.4-19.4,19.4S0,30.1,0,19.4z"/>
	<g>
		<defs>
			<path id="SVGID_1_" d="M0,19.4C0,8.7,8.7,0,19.4,0s19.4,8.7,19.4,19.4s-8.7,19.4-19.4,19.4S0,30.1,0,19.4z"/>
		</defs>
		<clipPath id="SVGID_2_">
			<use xlink:href="#SVGID_1_"  style="overflow:visible;"/>
		</clipPath>
		
			<rect x="16.6" y="11.4" transform="matrix(0.7034 0.7108 -0.7108 0.7034 26.5697 -10.7005)" class="st1" width="19" height="30.2"/>
	</g>
</g>
<g id="Fork_x2F_Knife">
	<g>
		<path class="st2" d="M29.5,28.4L29.5,28.4c0,0-5.6-5.7-6.1-6.2c-0.3-0.1-2.3-1-2.4-2.6c0.8-1,2.1-1.9,3.9-1.9c0,0,0,0,0,0
			c0.8,0,1.7-0.3,2.3-0.8c0,0,0.2-0.1,0.2-0.1l4.5-5.7l-0.5-0.5l-5.6,5.9l-0.7-0.7l5.7-5.7l-0.5-0.5l-5.8,5.8l-0.5-0.5l5.7-5.8
			l-0.5-0.5l-5.8,5.8L23,13.4l5.9-5.6l-0.5-0.5L23,11.6c0,0-0.2,0.2-0.3,0.2c-0.8,0.8-1.1,1.8-1,2.7c-0.1,1.2-0.5,2.2-1,2.9
			c-10.2-10-14-8.9-14-8.9L6.4,8.9c0,0,6.9,6.9,11.1,11.1c-1.5,1.5-8.7,8.7-8.7,8.7v0c0,0,0,0,0,0c-0.5,0.5-0.5,1.3,0,1.9
			c0.5,0.5,1.3,0.5,1.9,0c0,0,0,0,0,0h0c0,0,7.2-7.2,8.7-8.7c0.8,0.8,1.3,1.3,1.4,1.4c0.6,0.6,7,7,7,7h0c0,0,0,0,0,0
			c0.5,0.5,1.4,0.5,1.9,0C30.1,29.7,30.1,28.9,29.5,28.4C29.5,28.4,29.5,28.4,29.5,28.4L29.5,28.4z M29.5,28.4L29.5,28.4z"/>
	</g>
</g>
<g id="Blue_rectangle">
</g>
</svg>
